<svg width="40" height="40" viewBox="0 0 40 40" fill="none" xmlns="http://www.w3.org/2000/svg">
<path fill-rule="evenodd" clip-rule="evenodd" d="M27.1321 10.6932L29.0778 13.0942C30.214 14.4791 31.0036 16.0985 31.3836 17.8218C31.7635 19.5452 31.7228 21.3242 31.2648 23.0158L31.245 23.0947L31.2323 23.1518C31.1 23.7465 27.8818 37.0148 6.31506 33.5877L12.8732 29.3032L10.9277 26.9022C9.7915 25.5173 9.00161 23.898 8.62166 22.1747C8.24171 20.4512 8.28231 18.672 8.7402 16.9803L8.76008 16.9017L8.77283 16.8445C8.90475 16.2508 12.1176 3.00549 33.6846 6.41214L27.1321 10.6932ZM25 20C25 22.7614 22.7614 25 20 25C17.2385 25 15 22.7614 15 20C15 17.2386 17.2385 15 20 15C22.7614 15 25 17.2386 25 20Z" fill="#6239ED"/>
</svg>
