<svg width="16" height="16" viewBox="0 0 16 16" fill="none" xmlns="http://www.w3.org/2000/svg">
<path fill-rule="evenodd" clip-rule="evenodd" d="M5.46967 3.46967C5.76256 3.17678 6.23744 3.17678 6.53033 3.46967L10.0589 6.99827C10.0653 7.00462 10.0718 7.0111 10.0784 7.01769C10.1716 7.11081 10.2878 7.22677 10.3749 7.34091C10.4813 7.48041 10.6119 7.70102 10.6119 8C10.6119 8.29898 10.4813 8.51959 10.3749 8.65909C10.2878 8.77323 10.1716 8.8892 10.0784 8.98231C10.0718 8.9889 10.0653 8.99538 10.0589 9.00173L6.53033 12.5303C6.23744 12.8232 5.76256 12.8232 5.46967 12.5303C5.17678 12.2374 5.17678 11.7626 5.46967 11.4697L8.93934 8L5.46967 4.53033C5.17678 4.23744 5.17678 3.76256 5.46967 3.46967Z" fill=""/>
</svg>
