<svg width="16" height="16" viewBox="0 0 16 16" fill="none" xmlns="http://www.w3.org/2000/svg">
<path fill-rule="evenodd" clip-rule="evenodd" d="M10.5304 3.46967C10.8233 3.76256 10.8233 4.23744 10.5304 4.53033L7.06078 8L10.5304 11.4697C10.8233 11.7626 10.8233 12.2374 10.5304 12.5303C10.2375 12.8232 9.76267 12.8232 9.46978 12.5303L5.94122 9.00176C5.94121 9.00175 5.9412 9.00174 5.94119 9.00173C5.93487 8.99541 5.92842 8.98897 5.92186 8.98242C5.82856 8.88927 5.71237 8.77327 5.62524 8.65907C5.51878 8.51954 5.38818 8.29894 5.38818 8C5.38818 7.70106 5.51878 7.48046 5.62524 7.34093C5.71237 7.22673 5.82856 7.11073 5.92186 7.01758C5.92842 7.01103 5.93487 7.00459 5.94119 6.99827C5.9412 6.99826 5.94121 6.99825 5.94122 6.99824L9.46978 3.46967C9.76267 3.17678 10.2375 3.17678 10.5304 3.46967Z" fill=""/>
</svg>
