<svg width="24" height="24" viewBox="0 0 24 24" fill="none" xmlns="http://www.w3.org/2000/svg">
<path fill-rule="evenodd" clip-rule="evenodd" d="M19.5 9.75C19.5 9.94891 19.421 10.1397 19.2803 10.2803C19.1397 10.421 18.9489 10.5 18.75 10.5H14.25C14.0511 10.5 13.8603 10.421 13.7197 10.2803C13.579 10.1397 13.5 9.94891 13.5 9.75V5.25C13.5 5.05109 13.579 4.86032 13.7197 4.71967C13.8603 4.57902 14.0511 4.5 14.25 4.5C14.4489 4.5 14.6397 4.57902 14.7803 4.71967C14.921 4.86032 15 5.05109 15 5.25V7.94L19.72 3.22C19.7887 3.14631 19.8715 3.08721 19.9635 3.04622C20.0555 3.00523 20.1548 2.98319 20.2555 2.98141C20.3562 2.97963 20.4562 2.99816 20.5496 3.03588C20.643 3.0736 20.7278 3.12974 20.799 3.20096C20.8703 3.27218 20.9264 3.35702 20.9641 3.4504C21.0018 3.54379 21.0204 3.64382 21.0186 3.74452C21.0168 3.84523 20.9948 3.94454 20.9538 4.03654C20.9128 4.12854 20.8537 4.21134 20.78 4.28L16.06 9H18.75C18.9489 9 19.1397 9.07902 19.2803 9.21967C19.421 9.36032 19.5 9.55109 19.5 9.75Z" fill="white"/>
<path fill-rule="evenodd" clip-rule="evenodd" d="M1.5 4.5C1.5 3.70435 1.81607 2.94129 2.37868 2.37868C2.94129 1.81607 3.70435 1.5 4.5 1.5H5.872C6.732 1.5 7.482 2.086 7.691 2.92L8.796 7.343C8.88554 7.701 8.86746 8.07746 8.74401 8.42522C8.62055 8.77299 8.39723 9.07659 8.102 9.298L6.809 10.268C6.674 10.369 6.645 10.517 6.683 10.62C7.24738 12.1549 8.1386 13.5487 9.29495 14.7051C10.4513 15.8614 11.8451 16.7526 13.38 17.317C13.483 17.355 13.63 17.326 13.732 17.191L14.702 15.898C14.9234 15.6028 15.227 15.3794 15.5748 15.256C15.9225 15.1325 16.299 15.1145 16.657 15.204L21.08 16.309C21.914 16.518 22.5 17.268 22.5 18.129V19.5C22.5 20.2956 22.1839 21.0587 21.6213 21.6213C21.0587 22.1839 20.2956 22.5 19.5 22.5H17.25C8.552 22.5 1.5 15.448 1.5 6.75V4.5Z" fill="white"/>
</svg>
