<svg width="16" height="16" viewBox="0 0 16 16" fill="none" xmlns="http://www.w3.org/2000/svg">
<path fill-rule="evenodd" clip-rule="evenodd" d="M13.0204 3.68693C13.2156 3.49167 13.2156 3.17508 13.0204 2.97982C12.8251 2.78456 12.5085 2.78456 12.3133 2.97982L8.00016 7.29293L3.68705 2.97982C3.49179 2.78456 3.1752 2.78456 2.97994 2.97982C2.78468 3.17508 2.78468 3.49167 2.97994 3.68693L7.29306 8.00004L2.97994 12.3132C2.78468 12.5084 2.78468 12.825 2.97994 13.0203C3.1752 13.2155 3.49179 13.2155 3.68705 13.0203L8.00016 8.70715L12.3133 13.0203C12.5085 13.2155 12.8251 13.2155 13.0204 13.0203C13.2156 12.825 13.2156 12.5084 13.0204 12.3132L8.70727 8.00004L13.0204 3.68693Z" fill="#94A3B8"/>
</svg>
