<svg width="16" height="16" viewBox="0 0 16 16" fill="none" xmlns="http://www.w3.org/2000/svg">
<path d="M4.0375 5.53333C4.08 5.46554 4.12424 5.39885 4.17016 5.33333H11.8302C11.8762 5.39867 11.9202 5.466 11.9628 5.53333L13.3095 4.756L13.9762 5.91067L12.5008 6.76267C12.6088 7.156 12.6668 7.57133 12.6668 8V8.66667H14.6668V10H12.6668C12.6668 10.6353 12.5402 11.2413 12.3095 11.7933L13.9762 12.756L13.3095 13.9107L11.6255 12.9387C10.8863 13.8517 9.8296 14.4519 8.66683 14.6193V9.33333H7.3335V14.62C6.17063 14.4524 5.11392 13.8519 4.37483 12.9387L2.69083 13.9107L2.02416 12.756L3.69083 11.794C3.45418 11.2255 3.33272 10.6158 3.3335 10H1.3335V8.66667H3.3335V8C3.3335 7.57133 3.3915 7.15667 3.4995 6.76267L2.02416 5.91067L2.69083 4.756L4.0375 5.53333ZM5.3335 4C5.3335 3.29275 5.61445 2.61448 6.11454 2.11438C6.61464 1.61428 7.29292 1.33333 8.00016 1.33333C8.70741 1.33333 9.38568 1.61428 9.88578 2.11438C10.3859 2.61448 10.6668 3.29275 10.6668 4H5.3335Z" fill="white"/>
</svg>
