<svg width="20" height="20" viewBox="0 0 20 20" fill="none" xmlns="http://www.w3.org/2000/svg">
<g clip-path="url(#clip0_821_3148)">
<path d="M4.93391 4.93408C6.79847 3.06952 7.73076 2.13724 8.82126 1.82969C9.59192 1.61233 10.4078 1.61233 11.1784 1.82969C12.2689 2.13724 13.2012 3.06952 15.0658 4.93408C16.9303 6.79864 17.8626 7.73092 18.1702 8.82142C18.3875 9.59209 18.3875 10.4079 18.1702 11.1786C17.8626 12.2691 16.9303 13.2013 15.0658 15.0659C13.2012 16.9305 12.2689 17.8628 11.1784 18.1703C10.4078 18.3877 9.59192 18.3877 8.82126 18.1703C7.73076 17.8628 6.79847 16.9305 4.93391 15.0659C3.06936 13.2013 2.13707 12.2691 1.82952 11.1786C1.61216 10.4079 1.61216 9.59209 1.82952 8.82142C2.13707 7.73092 3.06936 6.79864 4.93391 4.93408Z" fill="#6239ED" stroke="#6239ED" stroke-width="1.5" stroke-linejoin="round"/>
</g>
<defs>
<clipPath id="clip0_821_3148">
<rect width="20" height="20" fill="white"/>
</clipPath>
</defs>
</svg>
