<svg width="16" height="16" viewBox="0 0 16 16" fill="none" xmlns="http://www.w3.org/2000/svg">
<g clip-path="url(#clip0_821_3702)">
<path d="M3.94742 3.94726C5.43907 2.45561 6.1849 1.70978 7.0573 1.46374C7.67383 1.28986 8.3265 1.28986 8.94303 1.46374C9.81543 1.70978 10.5612 2.45561 12.0529 3.94726C13.5446 5.4389 14.2904 6.18473 14.5364 7.05713C14.7103 7.67366 14.7103 8.32633 14.5364 8.94286C14.2904 9.81526 13.5446 10.5611 12.0529 12.0527C10.5612 13.5444 9.81543 14.2902 8.94303 14.5363C8.3265 14.7101 7.67383 14.7101 7.0573 14.5363C6.1849 14.2902 5.43907 13.5444 3.94742 12.0527C2.45578 10.5611 1.70995 9.81526 1.46391 8.94286C1.29002 8.32633 1.29002 7.67366 1.46391 7.05713C1.70995 6.18473 2.45578 5.4389 3.94742 3.94726Z" stroke="#94A3B8" stroke-width="1.5" stroke-linejoin="round"/>
</g>
<defs>
<clipPath id="clip0_821_3702">
<rect width="16" height="16" fill="white"/>
</clipPath>
</defs>
</svg>
