<svg width="16" height="17" viewBox="0 0 16 17" fill="none" xmlns="http://www.w3.org/2000/svg">
<g clip-path="url(#clip0_227_4719)">
<path d="M5.33333 3.44987H14V4.7832H5.33333V3.44987ZM3.33333 2.7832V4.7832H4V5.44987H2V4.7832H2.66667V3.44987H2V2.7832H3.33333ZM2 10.1165V8.44987H3.33333V8.11654H2V7.44987H4V9.11654H2.66667V9.44987H4V10.1165H2ZM3.33333 13.7832H2V13.1165H3.33333V12.7832H2V12.1165H4V14.7832H2V14.1165H3.33333V13.7832ZM5.33333 8.11654H14V9.44987H5.33333V8.11654ZM5.33333 12.7832H14V14.1165H5.33333V12.7832Z" fill="#64748B"/>
</g>
<defs>
<clipPath id="clip0_227_4719">
<rect width="16" height="16" fill="white" transform="translate(0 0.783203)"/>
</clipPath>
</defs>
</svg>
