<svg width="16" height="17" viewBox="0 0 16 17" fill="none" xmlns="http://www.w3.org/2000/svg">
<g clip-path="url(#clip0_227_4702)">
<path d="M5.33333 8.11653H8.33333C8.77536 8.11653 9.19928 7.94093 9.51184 7.62837C9.82441 7.31581 10 6.89189 10 6.44986C10 6.00783 9.82441 5.58391 9.51184 5.27135C9.19928 4.95879 8.77536 4.78319 8.33333 4.78319H5.33333V8.11653ZM12 11.1165C12 11.5105 11.9224 11.9006 11.7716 12.2646C11.6209 12.6286 11.3999 12.9593 11.1213 13.2378C10.8427 13.5164 10.512 13.7374 10.1481 13.8882C9.78407 14.0389 9.39397 14.1165 9 14.1165H4V3.44986H8.33333C8.92064 3.44988 9.49502 3.62229 9.98525 3.94571C10.4755 4.26913 10.86 4.72933 11.0911 5.26924C11.3223 5.80915 11.3898 6.40503 11.2855 6.98299C11.1811 7.56094 10.9094 8.09555 10.504 8.52053C10.9591 8.78406 11.3369 9.16264 11.5995 9.61829C11.862 10.0739 12.0002 10.5906 12 11.1165ZM5.33333 9.44986V12.7832H9C9.44203 12.7832 9.86595 12.6076 10.1785 12.295C10.4911 11.9825 10.6667 11.5586 10.6667 11.1165C10.6667 10.6745 10.4911 10.2506 10.1785 9.93801C9.86595 9.62545 9.44203 9.44986 9 9.44986H5.33333Z" fill="#64748B"/>
</g>
<defs>
<clipPath id="clip0_227_4702">
<rect width="16" height="16" fill="white" transform="translate(0 0.783203)"/>
</clipPath>
</defs>
</svg>
