<svg width="16" height="17" viewBox="0 0 16 17" fill="none" xmlns="http://www.w3.org/2000/svg">
<g clip-path="url(#clip0_227_4720)">
<path d="M5.33333 3.44988H14V4.78321H5.33333V3.44988ZM3 5.11655C2.73478 5.11655 2.48043 5.01119 2.29289 4.82365C2.10536 4.63612 2 4.38176 2 4.11655C2 3.85133 2.10536 3.59698 2.29289 3.40944C2.48043 3.2219 2.73478 3.11655 3 3.11655C3.26522 3.11655 3.51957 3.2219 3.70711 3.40944C3.89464 3.59698 4 3.85133 4 4.11655C4 4.38176 3.89464 4.63612 3.70711 4.82365C3.51957 5.01119 3.26522 5.11655 3 5.11655ZM3 9.78321C2.73478 9.78321 2.48043 9.67786 2.29289 9.49032C2.10536 9.30278 2 9.04843 2 8.78321C2 8.518 2.10536 8.26364 2.29289 8.07611C2.48043 7.88857 2.73478 7.78321 3 7.78321C3.26522 7.78321 3.51957 7.88857 3.70711 8.07611C3.89464 8.26364 4 8.518 4 8.78321C4 9.04843 3.89464 9.30278 3.70711 9.49032C3.51957 9.67786 3.26522 9.78321 3 9.78321ZM3 14.3832C2.73478 14.3832 2.48043 14.2779 2.29289 14.0903C2.10536 13.9028 2 13.6484 2 13.3832C2 13.118 2.10536 12.8636 2.29289 12.6761C2.48043 12.4886 2.73478 12.3832 3 12.3832C3.26522 12.3832 3.51957 12.4886 3.70711 12.6761C3.89464 12.8636 4 13.118 4 13.3832C4 13.6484 3.89464 13.9028 3.70711 14.0903C3.51957 14.2779 3.26522 14.3832 3 14.3832ZM5.33333 8.11655H14V9.44988H5.33333V8.11655ZM5.33333 12.7832H14V14.1165H5.33333V12.7832Z" fill="#64748B"/>
</g>
<defs>
<clipPath id="clip0_227_4720">
<rect width="16" height="16" fill="white" transform="translate(0 0.783203)"/>
</clipPath>
</defs>
</svg>
