<svg width="16" height="17" viewBox="0 0 16 17" fill="none" xmlns="http://www.w3.org/2000/svg">
<g clip-path="url(#clip0_227_4709)">
<path d="M7.49724 10.7832H3.16924L1.8359 14.1165H0.399902L4.66657 3.44986H5.9999L10.2666 14.1165H8.83057L7.49724 10.7832ZM6.9639 9.44986L5.33324 5.37319L3.70257 9.44986H6.9639ZM13.9999 9.13986V8.78319H15.3332V14.1165H13.9999V13.7599C13.5945 13.9937 13.1347 14.1167 12.6667 14.1165C12.1987 14.1164 11.739 13.9931 11.3338 13.759C10.9285 13.5249 10.592 13.1883 10.3581 12.7829C10.1241 12.3776 10.0009 11.9179 10.0009 11.4499C10.0009 10.9819 10.1241 10.5221 10.3581 10.1168C10.592 9.71146 10.9285 9.37485 11.3338 9.14076C11.739 8.90667 12.1987 8.78335 12.6667 8.78319C13.1347 8.78304 13.5945 8.90604 13.9999 9.13986ZM12.6666 12.7832C13.0202 12.7832 13.3593 12.6427 13.6094 12.3927C13.8594 12.1426 13.9999 11.8035 13.9999 11.4499C13.9999 11.0962 13.8594 10.7571 13.6094 10.5071C13.3593 10.257 13.0202 10.1165 12.6666 10.1165C12.3129 10.1165 11.9738 10.257 11.7238 10.5071C11.4737 10.7571 11.3332 11.0962 11.3332 11.4499C11.3332 11.8035 11.4737 12.1426 11.7238 12.3927C11.9738 12.6427 12.3129 12.7832 12.6666 12.7832Z" fill="#64748B"/>
</g>
<defs>
<clipPath id="clip0_227_4709">
<rect width="16" height="16" fill="white" transform="translate(0 0.783203)"/>
</clipPath>
</defs>
</svg>
