<svg width="16" height="17" viewBox="0 0 16 17" fill="none" xmlns="http://www.w3.org/2000/svg">
<g clip-path="url(#clip0_227_4704)">
<path d="M5.33341 2.7832V8.7832C5.33341 9.49045 5.61437 10.1687 6.11446 10.6688C6.61456 11.1689 7.29284 11.4499 8.00008 11.4499C8.70732 11.4499 9.3856 11.1689 9.8857 10.6688C10.3858 10.1687 10.6667 9.49045 10.6667 8.7832V2.7832H12.0001V8.7832C12.0001 9.84407 11.5787 10.8615 10.8285 11.6116C10.0784 12.3618 9.06095 12.7832 8.00008 12.7832C6.93922 12.7832 5.9218 12.3618 5.17165 11.6116C4.42151 10.8615 4.00008 9.84407 4.00008 8.7832V2.7832H5.33341ZM2.66675 14.1165H13.3334V15.4499H2.66675V14.1165Z" fill="#64748B"/>
</g>
<defs>
<clipPath id="clip0_227_4704">
<rect width="16" height="16" fill="white" transform="translate(0 0.783203)"/>
</clipPath>
</defs>
</svg>
