<svg width="16" height="17" viewBox="0 0 16 17" fill="none" xmlns="http://www.w3.org/2000/svg">
<g clip-path="url(#clip0_227_4723)">
<path d="M12.9446 5.23586C13.6313 5.96519 13.9999 6.78319 13.9999 8.10919C13.9999 10.4425 12.3619 12.5339 9.97995 13.5679L9.38461 12.6492C11.6079 11.4465 12.0426 9.88586 12.2159 8.90186C11.8579 9.08719 11.3893 9.15186 10.9299 9.10919C9.72728 8.99786 8.77928 8.01053 8.77928 6.78319C8.77928 6.16435 9.02511 5.57086 9.4627 5.13328C9.90028 4.69569 10.4938 4.44986 11.1126 4.44986C11.8279 4.44986 12.5119 4.77653 12.9446 5.23586ZM6.27795 5.23586C6.96461 5.96519 7.33328 6.78319 7.33328 8.10919C7.33328 10.4425 5.69528 12.5339 3.31328 13.5679L2.71795 12.6492C4.94128 11.4465 5.37595 9.88586 5.54928 8.90186C5.19128 9.08719 4.72261 9.15186 4.26328 9.10919C3.06061 8.99786 2.11328 8.01053 2.11328 6.78319C2.11328 6.16435 2.35911 5.57086 2.7967 5.13328C3.23428 4.69569 3.82778 4.44986 4.44661 4.44986C5.16195 4.44986 5.84595 4.77653 6.27861 5.23586H6.27795Z" fill="#64748B"/>
</g>
<defs>
<clipPath id="clip0_227_4723">
<rect width="16" height="16" fill="white" transform="translate(0 0.783203)"/>
</clipPath>
</defs>
</svg>
