<svg width="32" height="32" viewBox="0 0 32 32" fill="none" xmlns="http://www.w3.org/2000/svg">
<path d="M21 16C21 18.7614 18.7614 21 16 21C13.2386 21 11 18.7614 11 16C11 13.2386 13.2386 11 16 11C18.7614 11 21 13.2386 21 16Z" stroke="#475569" stroke-width="1.5"/>
<path d="M16 6C15.6227 6.33333 15.0945 7.2 16 8M16 24C16.3773 24.3333 16.9055 25.2 16 26M23.5 8.50271C22.9685 8.46982 21.9253 8.72293 22.0042 9.99847M9.49576 21.5C9.52865 22.0315 9.27555 23.0747 8 22.9958M9.00271 8.5C8.96979 9.03202 9.22315 10.0763 10.5 9.99729M22 21.5026C22.5315 21.4715 23.5747 21.7108 23.4958 22.9168M26 16C25.6667 15.6227 24.8 15.0945 24 16M8 15.5C7.66667 15.8773 6.8 16.4055 6 15.5" stroke="#475569" stroke-width="1.5" stroke-linecap="round"/>
</svg>
