<svg width="32" height="32" viewBox="0 0 32 32" fill="none" xmlns="http://www.w3.org/2000/svg">
<path d="M6.52992 18.394C6.31727 19.7471 7.268 20.6862 8.43205 21.1542C12.8948 22.9486 19.1052 22.9486 23.5679 21.1542C24.732 20.6862 25.6827 19.7471 25.4701 18.394C25.3394 17.5625 24.6932 16.8701 24.2144 16.194C23.5873 15.2975 23.525 14.3197 23.5249 13.2794C23.5249 9.2591 20.1559 6 16 6C11.8441 6 8.47513 9.2591 8.47513 13.2794C8.47503 14.3197 8.41272 15.2975 7.78561 16.194C7.30684 16.8701 6.66061 17.5625 6.52992 18.394Z" stroke="" stroke-width="1.5" stroke-linecap="round" stroke-linejoin="round"/>
<path d="M13 25C13.7961 25.6219 14.8475 26 16 26C17.1525 26 18.2039 25.6219 19 25" stroke="" stroke-width="1.5" stroke-linecap="round" stroke-linejoin="round"/>
</svg>
