<svg width="32" height="32" viewBox="0 0 32 32" fill="none" xmlns="http://www.w3.org/2000/svg">
<path d="M11 11H20.75C22.8567 11 23.91 11 24.6667 11.5056C24.9943 11.7245 25.2755 12.0057 25.4944 12.3333C26 13.09 26 14.1433 26 16.25C26 19.7612 26 21.5167 25.1573 22.7779C24.7926 23.3238 24.3238 23.7926 23.7779 24.1573C22.5167 25 20.7612 25 17.25 25H16C11.286 25 8.92893 25 7.46447 23.5355C6 22.0711 6 19.714 6 15V11.9443C6 10.1278 6 9.21956 6.38032 8.53806C6.65142 8.05227 7.05227 7.65142 7.53806 7.38032C8.21956 7 9.1278 7 10.9443 7C12.108 7 12.6899 7 13.1993 7.19101C14.3622 7.62712 14.8418 8.68358 15.3666 9.73313L16 11" stroke="#475569" stroke-width="1.5" stroke-linecap="round"/>
</svg>
