<svg width="32" height="32" viewBox="0 0 32 32" fill="none" xmlns="http://www.w3.org/2000/svg">
<path d="M6.5 16C6.5 11.5217 6.5 9.28249 7.89124 7.89124C9.28249 6.5 11.5217 6.5 16 6.5C20.4783 6.5 22.7175 6.5 24.1088 7.89124C25.5 9.28249 25.5 11.5217 25.5 16C25.5 20.4783 25.5 22.7175 24.1088 24.1088C22.7175 25.5 20.4783 25.5 16 25.5C11.5217 25.5 9.28249 25.5 7.89124 24.1088C6.5 22.7175 6.5 20.4783 6.5 16Z" stroke="#475569" stroke-width="1.5" stroke-linejoin="round"/>
<path d="M12.5 14C11.6716 14 11 13.3284 11 12.5C11 11.6716 11.6716 11 12.5 11C13.3284 11 14 11.6716 14 12.5C14 13.3284 13.3284 14 12.5 14Z" stroke="#475569" stroke-width="1.5"/>
<path d="M19.5 21C20.3284 21 21 20.3284 21 19.5C21 18.6716 20.3284 18 19.5 18C18.6716 18 18 18.6716 18 19.5C18 20.3284 18.6716 21 19.5 21Z" stroke="#475569" stroke-width="1.5"/>
<path d="M14 12.5H21" stroke="#475569" stroke-width="1.5" stroke-linecap="round"/>
<path d="M18 19.5H11" stroke="#475569" stroke-width="1.5" stroke-linecap="round"/>
</svg>
