<svg width="32" height="32" viewBox="0 0 32 32" fill="none" xmlns="http://www.w3.org/2000/svg">
<path d="M26 15.5667C26 20.8499 21.5222 25.1334 16 25.1334C15.3507 25.1343 14.7032 25.0742 14.0654 24.9545C13.6063 24.8682 13.3768 24.8251 13.2165 24.8496C13.0563 24.8741 12.8292 24.9948 12.375 25.2364C11.0901 25.9197 9.59195 26.161 8.15111 25.893C8.69874 25.2194 9.07275 24.4112 9.23778 23.5448C9.33778 23.0148 9.09 22.5 8.71889 22.1231C7.03333 20.4115 6 18.1051 6 15.5667C6 10.2836 10.4778 6 16 6C21.5222 6 26 10.2836 26 15.5667Z" fill="#9747FF" stroke="#9747FF" stroke-width="1.5" stroke-linejoin="round"/>
<path d="M16.0045 14.5V16M19.991 16H20M12 16H12.009" stroke="white" stroke-width="2" stroke-linecap="round" stroke-linejoin="round"/>
</svg>
