<svg width="32" height="32" viewBox="0 0 32 32" fill="none" xmlns="http://www.w3.org/2000/svg">
<path d="M6 22C6 20.4596 6 19.6893 6.34673 19.1235C6.54074 18.8069 6.80693 18.5407 7.12353 18.3467C7.68934 18 8.45956 18 10 18C11.5404 18 12.3107 18 12.8765 18.3467C13.1931 18.5407 13.4593 18.8069 13.6533 19.1235C14 19.6893 14 20.4596 14 22C14 23.5404 14 24.3107 13.6533 24.8765C13.4593 25.1931 13.1931 25.4593 12.8765 25.6533C12.3107 26 11.5404 26 10 26C8.45956 26 7.68934 26 7.12353 25.6533C6.80693 25.4593 6.54074 25.1931 6.34673 24.8765C6 24.3107 6 23.5404 6 22Z" stroke="#475569" stroke-width="1.5"/>
<path d="M18 22C18 20.4596 18 19.6893 18.3467 19.1235C18.5407 18.8069 18.8069 18.5407 19.1235 18.3467C19.6893 18 20.4596 18 22 18C23.5404 18 24.3107 18 24.8765 18.3467C25.1931 18.5407 25.4593 18.8069 25.6533 19.1235C26 19.6893 26 20.4596 26 22C26 23.5404 26 24.3107 25.6533 24.8765C25.4593 25.1931 25.1931 25.4593 24.8765 25.6533C24.3107 26 23.5404 26 22 26C20.4596 26 19.6893 26 19.1235 25.6533C18.8069 25.4593 18.5407 25.1931 18.3467 24.8765C18 24.3107 18 23.5404 18 22Z" stroke="#475569" stroke-width="1.5"/>
<path d="M6 10C6 8.45956 6 7.68934 6.34673 7.12353C6.54074 6.80693 6.80693 6.54074 7.12353 6.34673C7.68934 6 8.45956 6 10 6C11.5404 6 12.3107 6 12.8765 6.34673C13.1931 6.54074 13.4593 6.80693 13.6533 7.12353C14 7.68934 14 8.45956 14 10C14 11.5404 14 12.3107 13.6533 12.8765C13.4593 13.1931 13.1931 13.4593 12.8765 13.6533C12.3107 14 11.5404 14 10 14C8.45956 14 7.68934 14 7.12353 13.6533C6.80693 13.4593 6.54074 13.1931 6.34673 12.8765C6 12.3107 6 11.5404 6 10Z" stroke="#475569" stroke-width="1.5"/>
<path d="M18 10C18 8.45956 18 7.68934 18.3467 7.12353C18.5407 6.80693 18.8069 6.54074 19.1235 6.34673C19.6893 6 20.4596 6 22 6C23.5404 6 24.3107 6 24.8765 6.34673C25.1931 6.54074 25.4593 6.80693 25.6533 7.12353C26 7.68934 26 8.45956 26 10C26 11.5404 26 12.3107 25.6533 12.8765C25.4593 13.1931 25.1931 13.4593 24.8765 13.6533C24.3107 14 23.5404 14 22 14C20.4596 14 19.6893 14 19.1235 13.6533C18.8069 13.4593 18.5407 13.1931 18.3467 12.8765C18 12.3107 18 11.5404 18 10Z" stroke="#475569" stroke-width="1.5"/>
</svg>
