<svg width="71" height="19" viewBox="0 0 71 19" fill="none" xmlns="http://www.w3.org/2000/svg">
<path d="M1.05682 13.7832V5.05593H4.00568C4.69034 5.05593 5.25 5.17951 5.68466 5.42667C6.12216 5.67099 6.44602 6.00195 6.65625 6.41957C6.86648 6.83718 6.97159 7.30309 6.97159 7.81729C6.97159 8.3315 6.86648 8.79883 6.65625 9.21928C6.44886 9.63974 6.12784 9.97496 5.69318 10.225C5.25852 10.4721 4.7017 10.5957 4.02273 10.5957H1.90909V9.6582H3.98864C4.45739 9.6582 4.83381 9.57724 5.1179 9.41531C5.40199 9.25337 5.60795 9.03462 5.7358 8.75906C5.86648 8.48065 5.93182 8.16673 5.93182 7.81729C5.93182 7.46786 5.86648 7.15536 5.7358 6.87979C5.60795 6.60423 5.40057 6.38832 5.11364 6.23207C4.8267 6.07298 4.44602 5.99343 3.97159 5.99343H2.11364V13.7832H1.05682ZM10.4638 13.9366C10.049 13.9366 9.67259 13.8585 9.33452 13.7022C8.99645 13.5431 8.72798 13.3145 8.52912 13.0162C8.33026 12.715 8.23082 12.3514 8.23082 11.9252C8.23082 11.5502 8.30469 11.2463 8.45241 11.0133C8.60014 10.7775 8.79759 10.5929 9.04474 10.4593C9.2919 10.3258 9.56463 10.2264 9.86293 10.161C10.1641 10.0929 10.4666 10.0389 10.7706 9.99911C11.1683 9.94798 11.4908 9.90962 11.7379 9.88406C11.9879 9.85565 12.1697 9.80877 12.2834 9.74343C12.3999 9.67809 12.4581 9.56445 12.4581 9.40252V9.36843C12.4581 8.94798 12.343 8.62127 12.1129 8.38832C11.8857 8.15536 11.5405 8.03888 11.0774 8.03888C10.5973 8.03888 10.2209 8.144 9.94815 8.35423C9.67543 8.56445 9.48366 8.78888 9.37287 9.02752L8.41832 8.68661C8.58878 8.28888 8.81605 7.97923 9.10014 7.75763C9.38707 7.5332 9.69957 7.37695 10.0376 7.28888C10.3786 7.19798 10.7138 7.15252 11.0433 7.15252C11.2536 7.15252 11.495 7.17809 11.7678 7.22923C12.0433 7.27752 12.3089 7.37837 12.5646 7.53178C12.8232 7.68519 13.0376 7.91673 13.2081 8.22638C13.3786 8.53604 13.4638 8.95082 13.4638 9.4707V13.7832H12.4581V12.8968H12.407C12.3388 13.0389 12.2251 13.1909 12.0661 13.3528C11.907 13.5147 11.6953 13.6525 11.4311 13.7662C11.1669 13.8798 10.8445 13.9366 10.4638 13.9366ZM10.6172 13.0332C11.0149 13.0332 11.3501 12.9551 11.6229 12.7988C11.8984 12.6426 12.1058 12.4409 12.245 12.1937C12.3871 11.9466 12.4581 11.6866 12.4581 11.4139V10.4934C12.4155 10.5446 12.3217 10.5914 12.1768 10.6341C12.0348 10.6738 11.87 10.7093 11.6825 10.7406C11.4979 10.769 11.3175 10.7946 11.1413 10.8173C10.968 10.8372 10.8274 10.8542 10.7195 10.8684C10.4581 10.9025 10.2138 10.9579 9.98651 11.0346C9.76207 11.1085 9.58026 11.2207 9.44105 11.3713C9.30469 11.519 9.23651 11.7207 9.23651 11.9764C9.23651 12.3258 9.36577 12.59 9.62429 12.769C9.88565 12.9451 10.2166 13.0332 10.6172 13.0332ZM15.2994 13.7832V7.23775H16.271V8.22638H16.3391C16.4585 7.90252 16.6744 7.63974 16.9869 7.43803C17.2994 7.23633 17.6516 7.13548 18.0437 7.13548C18.1175 7.13548 18.2099 7.1369 18.3207 7.13974C18.4315 7.14258 18.5153 7.14684 18.5721 7.15252V8.17525C18.538 8.16673 18.4599 8.15394 18.3377 8.1369C18.2184 8.11701 18.092 8.10707 17.9585 8.10707C17.6403 8.10707 17.3562 8.17383 17.1062 8.30735C16.859 8.43803 16.663 8.61985 16.5181 8.85281C16.3761 9.08292 16.305 9.3457 16.305 9.64116V13.7832H15.2994ZM21.6903 13.9366C21.2756 13.9366 20.8991 13.8585 20.5611 13.7022C20.223 13.5431 19.9545 13.3145 19.7557 13.0162C19.5568 12.715 19.4574 12.3514 19.4574 11.9252C19.4574 11.5502 19.5313 11.2463 19.679 11.0133C19.8267 10.7775 20.0241 10.5929 20.2713 10.4593C20.5185 10.3258 20.7912 10.2264 21.0895 10.161C21.3906 10.0929 21.6932 10.0389 21.9972 9.99911C22.3949 9.94798 22.7173 9.90962 22.9645 9.88406C23.2145 9.85565 23.3963 9.80877 23.5099 9.74343C23.6264 9.67809 23.6847 9.56445 23.6847 9.40252V9.36843C23.6847 8.94798 23.5696 8.62127 23.3395 8.38832C23.1122 8.15536 22.767 8.03888 22.304 8.03888C21.8239 8.03888 21.4474 8.144 21.1747 8.35423C20.902 8.56445 20.7102 8.78888 20.5994 9.02752L19.6449 8.68661C19.8153 8.28888 20.0426 7.97923 20.3267 7.75763C20.6136 7.5332 20.9261 7.37695 21.2642 7.28888C21.6051 7.19798 21.9403 7.15252 22.2699 7.15252C22.4801 7.15252 22.7216 7.17809 22.9943 7.22923C23.2699 7.27752 23.5355 7.37837 23.7912 7.53178C24.0497 7.68519 24.2642 7.91673 24.4347 8.22638C24.6051 8.53604 24.6903 8.95082 24.6903 9.4707V13.7832H23.6847V12.8968H23.6335C23.5653 13.0389 23.4517 13.1909 23.2926 13.3528C23.1335 13.5147 22.9219 13.6525 22.6577 13.7662C22.3935 13.8798 22.071 13.9366 21.6903 13.9366ZM21.8438 13.0332C22.2415 13.0332 22.5767 12.9551 22.8494 12.7988C23.125 12.6426 23.3324 12.4409 23.4716 12.1937C23.6136 11.9466 23.6847 11.6866 23.6847 11.4139V10.4934C23.642 10.5446 23.5483 10.5914 23.4034 10.6341C23.2614 10.6738 23.0966 10.7093 22.9091 10.7406C22.7244 10.769 22.544 10.7946 22.3679 10.8173C22.1946 10.8372 22.054 10.8542 21.946 10.8684C21.6847 10.9025 21.4403 10.9579 21.2131 11.0346C20.9886 11.1085 20.8068 11.2207 20.6676 11.3713C20.5313 11.519 20.4631 11.7207 20.4631 11.9764C20.4631 12.3258 20.5923 12.59 20.8509 12.769C21.1122 12.9451 21.4432 13.0332 21.8438 13.0332ZM29.168 16.3741C28.6822 16.3741 28.2646 16.3116 27.9151 16.1866C27.5657 16.0645 27.2745 15.9025 27.0415 15.7008C26.8114 15.502 26.6282 15.2889 26.4918 15.0616L27.293 14.4991C27.3839 14.6184 27.4989 14.7548 27.6381 14.9082C27.7773 15.0645 27.9677 15.1994 28.2092 15.313C28.4535 15.4295 28.7731 15.4877 29.168 15.4877C29.6964 15.4877 30.1325 15.3599 30.4762 15.1042C30.82 14.8485 30.9918 14.448 30.9918 13.9025V12.573H30.9066C30.8327 12.6923 30.7276 12.84 30.5913 13.0162C30.4577 13.1895 30.2646 13.3443 30.0117 13.4806C29.7617 13.6142 29.4237 13.6809 28.9975 13.6809C28.4691 13.6809 27.9947 13.5559 27.5742 13.3059C27.1566 13.0559 26.8256 12.6923 26.5813 12.215C26.3398 11.7377 26.2191 11.1582 26.2191 10.4764C26.2191 9.80593 26.337 9.22212 26.5728 8.72496C26.8086 8.22496 27.1367 7.8386 27.5572 7.56587C27.9776 7.29031 28.4634 7.15252 29.0146 7.15252C29.4407 7.15252 29.7788 7.22354 30.0288 7.36559C30.2816 7.50479 30.4748 7.66388 30.6083 7.84286C30.7447 8.019 30.8498 8.16388 30.9237 8.27752H31.0259V7.23775H31.9975V13.9707C31.9975 14.5332 31.8697 14.9906 31.614 15.3429C31.3612 15.698 31.0202 15.9579 30.5913 16.1227C30.1651 16.2903 29.6907 16.3741 29.168 16.3741ZM29.1339 12.7775C29.5373 12.7775 29.8782 12.6852 30.1566 12.5005C30.435 12.3159 30.6467 12.0502 30.7915 11.7037C30.9364 11.3571 31.0089 10.9423 31.0089 10.4593C31.0089 9.98775 30.9379 9.57156 30.7958 9.21076C30.6538 8.84996 30.4435 8.56729 30.1651 8.36275C29.8867 8.1582 29.543 8.05593 29.1339 8.05593C28.7077 8.05593 28.3526 8.16388 28.0685 8.37979C27.7873 8.5957 27.5756 8.88548 27.4336 9.24911C27.2944 9.61275 27.2248 10.0162 27.2248 10.4593C27.2248 10.9139 27.2958 11.3159 27.4379 11.6653C27.5827 12.0119 27.7958 12.2846 28.0771 12.4835C28.3612 12.6795 28.7134 12.7775 29.1339 12.7775ZM33.8384 13.7832V7.23775H34.81V8.22638H34.8782C34.9975 7.90252 35.2134 7.63974 35.5259 7.43803C35.8384 7.23633 36.1907 7.13548 36.5827 7.13548C36.6566 7.13548 36.7489 7.1369 36.8597 7.13974C36.9705 7.14258 37.0543 7.14684 37.1112 7.15252V8.17525C37.0771 8.16673 36.9989 8.15394 36.8768 8.1369C36.7575 8.11701 36.631 8.10707 36.4975 8.10707C36.1793 8.10707 35.8952 8.17383 35.6452 8.30735C35.3981 8.43803 35.2021 8.61985 35.0572 8.85281C34.9151 9.08292 34.8441 9.3457 34.8441 9.64116V13.7832H33.8384ZM40.2294 13.9366C39.8146 13.9366 39.4382 13.8585 39.1001 13.7022C38.7621 13.5431 38.4936 13.3145 38.2947 13.0162C38.0959 12.715 37.9964 12.3514 37.9964 11.9252C37.9964 11.5502 38.0703 11.2463 38.218 11.0133C38.3658 10.7775 38.5632 10.5929 38.8104 10.4593C39.0575 10.3258 39.3303 10.2264 39.6286 10.161C39.9297 10.0929 40.2322 10.0389 40.5362 9.99911C40.9339 9.94798 41.2564 9.90962 41.5036 9.88406C41.7536 9.85565 41.9354 9.80877 42.049 9.74343C42.1655 9.67809 42.2237 9.56445 42.2237 9.40252V9.36843C42.2237 8.94798 42.1087 8.62127 41.8786 8.38832C41.6513 8.15536 41.3061 8.03888 40.843 8.03888C40.3629 8.03888 39.9865 8.144 39.7138 8.35423C39.4411 8.56445 39.2493 8.78888 39.1385 9.02752L38.1839 8.68661C38.3544 8.28888 38.5817 7.97923 38.8658 7.75763C39.1527 7.5332 39.4652 7.37695 39.8033 7.28888C40.1442 7.19798 40.4794 7.15252 40.8089 7.15252C41.0192 7.15252 41.2607 7.17809 41.5334 7.22923C41.8089 7.27752 42.0746 7.37837 42.3303 7.53178C42.5888 7.68519 42.8033 7.91673 42.9737 8.22638C43.1442 8.53604 43.2294 8.95082 43.2294 9.4707V13.7832H42.2237V12.8968H42.1726C42.1044 13.0389 41.9908 13.1909 41.8317 13.3528C41.6726 13.5147 41.4609 13.6525 41.1967 13.7662C40.9325 13.8798 40.6101 13.9366 40.2294 13.9366ZM40.3828 13.0332C40.7805 13.0332 41.1158 12.9551 41.3885 12.7988C41.6641 12.6426 41.8714 12.4409 42.0107 12.1937C42.1527 11.9466 42.2237 11.6866 42.2237 11.4139V10.4934C42.1811 10.5446 42.0874 10.5914 41.9425 10.6341C41.8004 10.6738 41.6357 10.7093 41.4482 10.7406C41.2635 10.769 41.0831 10.7946 40.907 10.8173C40.7337 10.8372 40.593 10.8542 40.4851 10.8684C40.2237 10.9025 39.9794 10.9579 39.7521 11.0346C39.5277 11.1085 39.3459 11.2207 39.2067 11.3713C39.0703 11.519 39.0021 11.7207 39.0021 11.9764C39.0021 12.3258 39.1314 12.59 39.3899 12.769C39.6513 12.9451 39.9822 13.0332 40.3828 13.0332ZM45.065 16.2377V7.23775H46.0366V8.27752H46.1559C46.2298 8.16388 46.332 8.019 46.4627 7.84286C46.5962 7.66388 46.7866 7.50479 47.0337 7.36559C47.2837 7.22354 47.6218 7.15252 48.0479 7.15252C48.5991 7.15252 49.0849 7.29031 49.5053 7.56587C49.9258 7.84144 50.2539 8.23207 50.4897 8.73775C50.7255 9.24343 50.8434 9.84002 50.8434 10.5275C50.8434 11.2207 50.7255 11.8216 50.4897 12.3301C50.2539 12.8358 49.9272 13.2278 49.5096 13.5062C49.092 13.7818 48.6104 13.9196 48.065 13.9196C47.6445 13.9196 47.3079 13.85 47.055 13.7108C46.8022 13.5687 46.6076 13.4082 46.4712 13.2292C46.3349 13.0474 46.2298 12.8968 46.1559 12.7775H46.0707V16.2377H45.065ZM46.0536 10.5105C46.0536 11.0048 46.1261 11.4409 46.271 11.8187C46.4158 12.1937 46.6275 12.4877 46.9059 12.7008C47.1843 12.911 47.5252 13.0162 47.9286 13.0162C48.3491 13.0162 48.6999 12.9054 48.9812 12.6838C49.2653 12.4593 49.4783 12.1582 49.6204 11.7804C49.7653 11.3997 49.8377 10.9764 49.8377 10.5105C49.8377 10.0502 49.7667 9.63548 49.6246 9.26616C49.4854 8.894 49.2738 8.59996 48.9897 8.38406C48.7085 8.16531 48.3548 8.05593 47.9286 8.05593C47.5195 8.05593 47.1758 8.15962 46.8974 8.36701C46.619 8.57156 46.4087 8.85849 46.2667 9.22781C46.1246 9.59428 46.0536 10.0218 46.0536 10.5105ZM53.3832 9.8457V13.7832H52.3775V5.05593H53.3832V8.26048H53.4684C53.6218 7.92241 53.8519 7.65394 54.1587 7.45508C54.4684 7.25337 54.8803 7.15252 55.3945 7.15252C55.8406 7.15252 56.2312 7.24201 56.5664 7.42099C56.9016 7.59712 57.1616 7.86843 57.3462 8.23491C57.5337 8.59854 57.6275 9.06161 57.6275 9.62411V13.7832H56.6218V9.69229C56.6218 9.17241 56.4869 8.77042 56.217 8.48633C55.9499 8.1994 55.5792 8.05593 55.1048 8.05593C54.7752 8.05593 54.4798 8.12553 54.2184 8.26474C53.9599 8.40394 53.7553 8.60707 53.6048 8.87411C53.457 9.14116 53.3832 9.46502 53.3832 9.8457Z" fill="#64748B"/>
<g clip-path="url(#clip0_227_4712)">
<path d="M65 11.7832L62 8.7832H68L65 11.7832Z" fill="#64748B"/>
</g>
<defs>
<clipPath id="clip0_227_4712">
<rect width="12" height="12" fill="white" transform="translate(59 3.7832)"/>
</clipPath>
</defs>
</svg>
