<svg width="16" height="17" viewBox="0 0 16 17" fill="none" xmlns="http://www.w3.org/2000/svg">
<g clip-path="url(#clip0_227_4724)">
<path d="M8.70659 6.18986L9.64993 7.13319C10.0833 7.56654 10.4271 8.08101 10.6617 8.64723C10.8962 9.21345 11.0169 9.82032 11.0169 10.4332C11.0169 11.0461 10.8962 11.6529 10.6617 12.2192C10.4271 12.7854 10.0833 13.2998 9.64993 13.7332L9.41393 13.9685C8.53871 14.8437 7.35167 15.3354 6.11393 15.3354C4.87619 15.3354 3.68914 14.8437 2.81393 13.9685C1.93871 13.0933 1.44702 11.9063 1.44702 10.6685C1.44702 9.43079 1.93871 8.24374 2.81393 7.36853L3.75726 8.31186C3.44551 8.6209 3.19786 8.98847 3.02855 9.39346C2.85923 9.79846 2.77157 10.2329 2.77061 10.6719C2.76965 11.1109 2.8554 11.5457 3.02294 11.9514C3.19049 12.3572 3.43652 12.7258 3.74691 13.0362C4.05731 13.3466 4.42596 13.5926 4.8317 13.7602C5.23744 13.9277 5.67227 14.0135 6.11124 14.0125C6.5502 14.0115 6.98466 13.9239 7.38966 13.7546C7.79466 13.5853 8.16222 13.3376 8.47126 13.0259L8.70726 12.7899C9.33216 12.1648 9.68321 11.3171 9.68321 10.4332C9.68321 9.54932 9.33216 8.70162 8.70726 8.07653L7.76393 7.13319L8.70726 6.19053L8.70659 6.18986ZM13.1853 10.1972L12.2426 9.25453C12.5543 8.94549 12.802 8.57793 12.9713 8.17293C13.1406 7.76793 13.2283 7.33347 13.2292 6.89451C13.2302 6.45554 13.1445 6.0207 12.9769 5.61497C12.8094 5.20923 12.5633 4.84058 12.2529 4.53018C11.9425 4.21979 11.5739 3.97375 11.1682 3.80621C10.7624 3.63867 10.3276 3.55292 9.88862 3.55388C9.44965 3.55484 9.0152 3.6425 8.6102 3.81181C8.2052 3.98113 7.83763 4.22878 7.52859 4.54053L7.29259 4.77653C6.66769 5.40162 6.31664 6.24931 6.31664 7.13319C6.31664 8.01708 6.66769 8.86477 7.29259 9.48986L8.23593 10.4332L7.29259 11.3759L6.34993 10.4332C5.91654 9.99985 5.57275 9.48538 5.3382 8.91916C5.10365 8.35294 4.98292 7.74607 4.98292 7.13319C4.98292 6.52032 5.10365 5.91345 5.3382 5.34723C5.57275 4.78101 5.91654 4.26654 6.34993 3.8332L6.58593 3.59786C7.46114 2.72265 8.64819 2.23096 9.88593 2.23096C11.1237 2.23096 12.3107 2.72265 13.1859 3.59786C14.0611 4.47308 14.5528 5.66012 14.5528 6.89786C14.5528 8.1356 14.0611 9.32265 13.1859 10.1979L13.1853 10.1972Z" fill="#64748B"/>
</g>
<defs>
<clipPath id="clip0_227_4724">
<rect width="16" height="16" fill="white" transform="translate(0 0.783203)"/>
</clipPath>
</defs>
</svg>
