<svg width="16" height="17" viewBox="0 0 16 17" fill="none" xmlns="http://www.w3.org/2000/svg">
<g clip-path="url(#clip0_227_4705)">
<path d="M11.436 10.1165C11.5893 10.4605 11.6667 10.8432 11.6667 11.2632C11.6667 12.1579 11.3173 12.8579 10.6193 13.3612C9.92 13.8645 8.95533 14.1165 7.724 14.1165C6.63067 14.1165 5.54867 13.8625 4.47733 13.3539V11.8499C5.49067 12.4345 6.52733 12.7272 7.588 12.7272C9.28867 12.7272 10.1413 12.2392 10.1473 11.2625C10.1509 11.0645 10.1144 10.8678 10.0402 10.6842C9.96596 10.5006 9.85547 10.3338 9.71533 10.1939L9.63533 10.1159H2V8.78253H14V10.1159H11.436V10.1165ZM8.71733 8.11653H5.086C4.96922 8.01005 4.86192 7.89361 4.76533 7.76853C4.47733 7.39653 4.33333 6.94719 4.33333 6.41786C4.33333 5.59386 4.644 4.89319 5.26467 4.31586C5.88667 3.73853 6.84733 3.44986 8.148 3.44986C9.12867 3.44986 10.0673 3.66853 10.9627 4.10586V5.54053C10.1627 5.08253 9.286 4.85386 8.332 4.85386C6.67867 4.85386 5.85267 5.37519 5.85267 6.41786C5.85267 6.69786 5.998 6.94186 6.28867 7.15053C6.57933 7.35919 6.938 7.52519 7.364 7.65053C7.77733 7.77053 8.22867 7.92653 8.71733 8.11653Z" fill="#64748B"/>
</g>
<defs>
<clipPath id="clip0_227_4705">
<rect width="16" height="16" fill="white" transform="translate(0 0.783203)"/>
</clipPath>
</defs>
</svg>
