<svg width="20" height="20" viewBox="0 0 20 20" fill="none" xmlns="http://www.w3.org/2000/svg">
<path d="M6.25 7.5C6.94036 7.5 7.5 6.94036 7.5 6.25C7.5 5.55964 6.94036 5 6.25 5C5.55964 5 5 5.55964 5 6.25C5 6.94036 5.55964 7.5 6.25 7.5Z" stroke="#64748B" stroke-width="1.5" stroke-linecap="round" stroke-linejoin="round"/>
<path d="M2.08325 9.99998C2.08325 6.26803 2.08325 4.40205 3.24262 3.24268C4.40199 2.08331 6.26797 2.08331 9.99992 2.08331C13.7318 2.08331 15.5978 2.08331 16.7573 3.24268C17.9166 4.40205 17.9166 6.26803 17.9166 9.99998C17.9166 13.7319 17.9166 15.5979 16.7573 16.7573C15.5978 17.9166 13.7318 17.9166 9.99992 17.9166C6.26797 17.9166 4.40199 17.9166 3.24262 16.7573C2.08325 15.5979 2.08325 13.7319 2.08325 9.99998Z" stroke="#64748B" stroke-width="1.5"/>
<path d="M4.16675 17.4999C7.81046 13.1458 11.8952 7.40331 17.9147 11.2853" stroke="#64748B" stroke-width="1.5"/>
</svg>
