<svg width="20" height="20" viewBox="0 0 20 20" fill="none" xmlns="http://www.w3.org/2000/svg">
<path d="M1.66675 5L7.4276 8.26414C9.55142 9.4675 10.4487 9.4675 12.5726 8.26414L18.3334 5" stroke="white" stroke-width="1.5" stroke-linejoin="round"/>
<path d="M1.67989 11.2297C1.73436 13.7843 1.76161 15.0616 2.70421 16.0078C3.64681 16.954 4.95869 16.9869 7.58244 17.0528C9.1995 17.0935 10.8007 17.0935 12.4177 17.0528C15.0415 16.9869 16.3533 16.954 17.296 16.0078C18.2386 15.0616 18.2658 13.7843 18.3202 11.2297C18.3378 10.4083 18.3378 9.59176 18.3202 8.77034C18.2658 6.21572 18.2386 4.93841 17.296 3.99222C16.3533 3.04603 15.0415 3.01307 12.4177 2.94715C10.8007 2.90651 9.1995 2.90651 7.58243 2.94714C4.95869 3.01306 3.64681 3.04601 2.70421 3.99221C1.7616 4.93841 1.73436 6.21571 1.67988 8.77034C1.66236 9.59176 1.66237 10.4083 1.67989 11.2297Z" stroke="white" stroke-width="1.5" stroke-linejoin="round"/>
</svg>
