<svg width="16" height="16" viewBox="0 0 16 16" fill="none" xmlns="http://www.w3.org/2000/svg">
<path d="M10.5856 2H6.85509C4.88062 2 3.89339 2 3.28001 2.58579C2.66663 3.17157 2.66663 4.11438 2.66663 6L2.73742 10H10.5856C12.0677 10 12.8087 10 13.1231 9.617C13.2101 9.51107 13.2738 9.3894 13.3104 9.25933C13.4426 8.78933 12.998 8.2232 12.1087 7.09093C11.7388 6.6199 11.5539 6.38439 11.5209 6.11673C11.5114 6.03918 11.5114 5.96082 11.5209 5.88327C11.5539 5.61561 11.7388 5.3801 12.1087 4.90909C12.998 3.77681 13.4426 3.21067 13.3104 2.74065C13.2738 2.61061 13.2101 2.48895 13.1231 2.38298C12.8087 2 12.0677 2 10.5856 2Z" fill="#FE7317" stroke="#FE7317" stroke-width="1.5" stroke-linecap="round" stroke-linejoin="round"/>
<path d="M2.66663 14V5.33337" stroke="#FE7317" stroke-width="1.5" stroke-linecap="round"/>
</svg>
