<svg width="20" height="20" viewBox="0 0 20 20" fill="none" xmlns="http://www.w3.org/2000/svg">
<g clip-path="url(#clip0_227_4733)">
<path d="M10.0001 2.49998C9.33702 2.49998 8.70114 2.76337 8.2323 3.23221C7.76346 3.70105 7.50006 4.33694 7.50006 4.99998V8.33331C7.50006 8.99635 7.76346 9.63224 8.2323 10.1011C8.70114 10.5699 9.33702 10.8333 10.0001 10.8333C10.6631 10.8333 11.299 10.5699 11.7678 10.1011C12.2367 9.63224 12.5001 8.99635 12.5001 8.33331V4.99998C12.5001 4.33694 12.2367 3.70105 11.7678 3.23221C11.299 2.76337 10.6631 2.49998 10.0001 2.49998ZM10.0001 0.833313C10.5472 0.833313 11.0891 0.941087 11.5946 1.15048C12.1001 1.35988 12.5594 1.66679 12.9463 2.0537C13.3333 2.44061 13.6402 2.89994 13.8496 3.40546C14.059 3.91099 14.1667 4.4528 14.1667 4.99998V8.33331C14.1667 9.43838 13.7277 10.4982 12.9463 11.2796C12.1649 12.061 11.1051 12.5 10.0001 12.5C8.895 12.5 7.83519 12.061 7.05379 11.2796C6.27238 10.4982 5.8334 9.43838 5.8334 8.33331V4.99998C5.8334 3.89491 6.27238 2.8351 7.05379 2.0537C7.83519 1.2723 8.895 0.833313 10.0001 0.833313ZM2.5459 9.16665H4.22507C4.42698 10.554 5.12162 11.8222 6.18193 12.7394C7.24223 13.6565 8.5973 14.1613 9.99923 14.1613C11.4012 14.1613 12.7562 13.6565 13.8165 12.7394C14.8768 11.8222 15.5715 10.554 15.7734 9.16665H17.4534C17.2639 10.8572 16.5056 12.4333 15.3027 13.6363C14.0999 14.8393 12.524 15.5978 10.8334 15.7875V19.1666H9.16673V15.7875C7.47601 15.598 5.89988 14.8395 4.69688 13.6365C3.49387 12.4335 2.73541 10.8574 2.5459 9.16665Z" fill="#64748B"/>
</g>
<defs>
<clipPath id="clip0_227_4733">
<rect width="20" height="20" fill="white"/>
</clipPath>
</defs>
</svg>
