<svg width="20" height="20" viewBox="0 0 20 20" fill="none" xmlns="http://www.w3.org/2000/svg">
<g clip-path="url(#clip0_326_7220)">
<path d="M5.17344 4.50424C7.48151 2.61251 8.63559 1.66666 9.99984 1.66666C11.3641 1.66666 12.5182 2.61251 14.8263 4.50424L15.0402 4.6796C16.9448 6.24063 17.8971 7.02115 18.2188 8.11773C18.5405 9.21432 18.1578 10.3752 17.3923 12.697L17.2401 13.1584C16.4226 15.6378 16.0139 16.8776 15.0218 17.5878C13.6463 18.5727 11.5834 18.2982 9.99984 18.2982C7.3544 18.2982 5.96987 18.2982 4.97783 17.5878C3.9858 16.8776 3.57705 15.6378 2.75956 13.1584L2.60741 12.697C1.8419 10.3752 1.45915 9.21432 1.78085 8.11773C2.10255 7.02115 3.05486 6.24063 4.95948 4.6796L5.17344 4.50424Z" stroke="#475569" stroke-width="1.5"/>
</g>
<defs>
<clipPath id="clip0_326_7220">
<rect width="20" height="20" fill="white"/>
</clipPath>
</defs>
</svg>
