<svg width="40" height="40" viewBox="0 0 40 40" fill="none" xmlns="http://www.w3.org/2000/svg">
<rect width="40" height="40" rx="6" fill="white" fill-opacity="0.2"/>
<g clip-path="url(#clip0_132_5122)">
<path d="M13.1481 19.952C12.3581 18.5744 11.9766 17.4496 11.7466 16.3093C11.4064 14.623 12.1849 12.9757 13.4746 11.9245C14.0196 11.4803 14.6444 11.6321 14.9667 12.2103L15.6944 13.5157C16.2712 14.5505 16.5595 15.0678 16.5023 15.6163C16.4451 16.1648 16.0562 16.6115 15.2784 17.505L13.1481 19.952ZM13.1481 19.952C14.7472 22.7402 17.2566 25.2511 20.0481 26.852M20.0481 26.852C21.4257 27.642 22.5505 28.0235 23.6907 28.2535C25.3771 28.5937 27.0244 27.8152 28.0755 26.5255C28.5197 25.9805 28.368 25.3557 27.7897 25.0333L26.4843 24.3057C25.4496 23.7289 24.9322 23.4406 24.3837 23.4977C23.8352 23.5549 23.3885 23.9438 22.4951 24.7217L20.0481 26.852Z" stroke="white" stroke-width="1.5" stroke-linejoin="round"/>
</g>
<defs>
<clipPath id="clip0_132_5122">
<rect width="20" height="20" fill="white" transform="translate(10 10)"/>
</clipPath>
</defs>
</svg>
