<svg width="20" height="20" viewBox="0 0 20 20" fill="none" xmlns="http://www.w3.org/2000/svg">
<g clip-path="url(#clip0_132_5218)">
<path d="M3.1481 9.95201C2.35808 8.57442 1.97662 7.44957 1.74661 6.30935C1.40643 4.62299 2.18492 2.97568 3.47456 1.92456C4.01962 1.48032 4.64444 1.63211 4.96675 2.21034L5.6944 3.51576C6.27116 4.55048 6.55953 5.06783 6.50233 5.61633C6.44514 6.16483 6.05622 6.61156 5.27839 7.50501L3.1481 9.95201ZM3.1481 9.95201C4.74717 12.7403 7.25661 15.2511 10.0481 16.852M10.0481 16.852C11.4257 17.642 12.5505 18.0235 13.6907 18.2535C15.3771 18.5937 17.0244 17.8152 18.0755 16.5255C18.5197 15.9805 18.368 15.3557 17.7897 15.0333L16.4843 14.3057C15.4496 13.7289 14.9322 13.4406 14.3837 13.4978C13.8352 13.5549 13.3885 13.9438 12.4951 14.7217L10.0481 16.852Z" stroke="white" stroke-width="1.5" stroke-linejoin="round"/>
</g>
<defs>
<clipPath id="clip0_132_5218">
<rect width="20" height="20" fill="white"/>
</clipPath>
</defs>
</svg>
