<svg width="16" height="16" viewBox="0 0 16 16" fill="none" xmlns="http://www.w3.org/2000/svg">
<path d="M2 14L5.33333 10.6667" stroke="#475569" stroke-width="1.5" stroke-linecap="round" stroke-linejoin="round"/>
<path d="M8.83904 12.5809C6.34348 12.0143 3.98567 9.65653 3.41906 7.161C3.32937 6.76593 3.28452 6.56844 3.41445 6.24798C3.54437 5.92753 3.70309 5.82837 4.02051 5.63006C4.73807 5.18177 5.51507 5.03925 6.32143 5.11057C7.45291 5.21065 8.01864 5.26069 8.30084 5.11365C8.58311 4.96661 8.77484 4.62278 9.15844 3.93513L9.64431 3.06403C9.96437 2.49019 10.1244 2.20327 10.5009 2.06801C10.8774 1.93275 11.1039 2.01466 11.557 2.17847C12.6166 2.56157 13.4384 3.38337 13.8216 4.44299C13.9854 4.89611 14.0673 5.12267 13.932 5.49913C13.7968 5.8756 13.5098 6.03564 12.936 6.35572L12.0448 6.8528C11.3584 7.2356 11.0153 7.42707 10.8683 7.712C10.7213 7.997 10.7747 8.5504 10.8814 9.65727C10.96 10.4712 10.8246 11.2533 10.3704 11.9798C10.1718 12.2972 10.0726 12.4559 9.75224 12.5857C9.43184 12.7155 9.23424 12.6707 8.83904 12.5809Z" fill="#475569" stroke="#475569" stroke-width="1.5" stroke-linecap="round" stroke-linejoin="round"/>
</svg>
