<svg width="33" height="32" viewBox="0 0 33 32" fill="none" xmlns="http://www.w3.org/2000/svg">
<path d="M16.8472 29.3333C24.211 29.3333 30.1806 23.3638 30.1806 16C30.1806 8.63621 24.211 2.66667 16.8472 2.66667C9.48345 2.66667 3.51392 8.63621 3.51392 16C3.51392 23.3638 9.48345 29.3333 16.8472 29.3333Z" fill="white"/>
<path d="M21.4514 16.5264C21.2494 17.362 20.2948 17.9525 18.3858 19.1336C16.5402 20.2752 15.6175 20.8461 14.8738 20.6167C14.5663 20.5217 14.2863 20.3416 14.0603 20.0933C13.5139 19.4931 13.5139 18.3287 13.5139 16C13.5139 13.6713 13.5139 12.5069 14.0603 11.9066C14.2863 11.6584 14.5663 11.4782 14.8738 11.3834C15.6175 11.1539 16.5402 11.7248 18.3858 12.8664C20.2948 14.0475 21.2494 14.638 21.4514 15.4736C21.5347 15.8185 21.5347 16.1815 21.4514 16.5264Z" fill="#6239ED"/>
</svg>
