<svg width="20" height="20" viewBox="0 0 20 20" fill="none" xmlns="http://www.w3.org/2000/svg">
<g clip-path="url(#clip0_227_4734)">
<path d="M3.1175 1.17336L18.5025 9.63503C18.5678 9.671 18.6223 9.72384 18.6602 9.78804C18.6982 9.85224 18.7182 9.92545 18.7182 10C18.7182 10.0746 18.6982 10.1478 18.6602 10.212C18.6223 10.2762 18.5678 10.3291 18.5025 10.365L3.1175 18.8267C3.05406 18.8616 2.98262 18.8794 2.91023 18.8782C2.83783 18.8771 2.76698 18.8572 2.70465 18.8203C2.64232 18.7835 2.59066 18.731 2.55478 18.6681C2.51889 18.6052 2.50001 18.5341 2.5 18.4617V1.53836C2.50001 1.46596 2.51889 1.3948 2.55478 1.33192C2.59066 1.26903 2.64232 1.21658 2.70465 1.17974C2.76698 1.1429 2.83783 1.12293 2.91023 1.12181C2.98262 1.1207 3.05406 1.13846 3.1175 1.17336ZM4.16667 10.8334V16.3475L15.7083 10L4.16667 3.65253V9.16669H8.33333V10.8334H4.16667Z" fill="#6239ED"/>
</g>
<defs>
<clipPath id="clip0_227_4734">
<rect width="20" height="20" fill="white"/>
</clipPath>
</defs>
</svg>
