<svg width="20" height="20" viewBox="0 0 20 20" fill="none" xmlns="http://www.w3.org/2000/svg">
<path d="M4.31656 12.747C3.26858 13.3612 0.520847 14.6155 2.1944 16.185C3.01192 16.9517 3.92242 17.5 5.06714 17.5H11.5992C12.7439 17.5 13.6544 16.9517 14.4719 16.185C16.1455 14.6155 13.3978 13.3612 12.3498 12.747C9.89225 11.3066 6.77405 11.3066 4.31656 12.747Z" stroke="white" stroke-width="1.5" stroke-linecap="round" stroke-linejoin="round"/>
<path d="M11.6667 5.83333C11.6667 7.67428 10.1743 9.16667 8.33333 9.16667C6.49238 9.16667 5 7.67428 5 5.83333C5 3.99238 6.49238 2.5 8.33333 2.5C10.1743 2.5 11.6667 3.99238 11.6667 5.83333Z" stroke="white" stroke-width="1.5"/>
<path d="M16.2498 3.33334V7.50001M18.3332 5.41668H14.1665" stroke="white" stroke-width="1.5" stroke-linecap="round" stroke-linejoin="round"/>
</svg>
