<svg width="40" height="40" viewBox="0 0 40 40" fill="none" xmlns="http://www.w3.org/2000/svg">
<rect width="40" height="40" rx="6" fill="white" fill-opacity="0.2"/>
<path d="M19.1667 16.6667H20.8334" stroke="#6239ED" stroke-width="1.5" stroke-linecap="round"/>
<path d="M11.6667 19.1667C11.6667 16.4168 11.6667 15.0419 12.521 14.1876C13.3753 13.3333 14.7502 13.3333 17.5001 13.3333H18.3334C21.0832 13.3333 22.4582 13.3333 23.3125 14.1876C24.1667 15.0419 24.1667 16.4168 24.1667 19.1667V20.8333C24.1667 23.5832 24.1667 24.9581 23.3125 25.8124C22.4582 26.6667 21.0832 26.6667 18.3334 26.6667H17.5001C14.7502 26.6667 13.3753 26.6667 12.521 25.8124C11.6667 24.9581 11.6667 23.5832 11.6667 20.8333V19.1667Z" stroke="#6239ED" stroke-width="1.5"/>
<path d="M24.1667 17.4215L24.2717 17.335C26.0348 15.8802 26.9164 15.1528 27.6249 15.504C28.3334 15.8552 28.3334 17.0196 28.3334 19.3484V20.6516C28.3334 22.9804 28.3334 24.1447 27.6249 24.496C26.9164 24.8472 26.0348 24.1198 24.2717 22.665L24.1667 22.5784" stroke="#6239ED" stroke-width="1.5" stroke-linecap="round"/>
</svg>
