<svg width="220" height="32" viewBox="0 0 220 32" fill="none" xmlns="http://www.w3.org/2000/svg">
<line x1="2.34717" y1="12.1667" x2="2.34717" y2="19.8333" stroke="white" stroke-width="3" stroke-linecap="round"/>
<line x1="10.3472" y1="9.5" x2="10.3472" y2="22.5" stroke="white" stroke-width="3" stroke-linecap="round"/>
<line x1="18.3472" y1="6.16667" x2="18.3472" y2="25.8333" stroke="white" stroke-width="3" stroke-linecap="round"/>
<line x1="26.3472" y1="1.5" x2="26.3472" y2="30.5" stroke="white" stroke-width="3" stroke-linecap="round"/>
<line x1="34.3472" y1="1.5" x2="34.3472" y2="30.5" stroke="white" stroke-width="3" stroke-linecap="round"/>
<line x1="42.3472" y1="1.5" x2="42.3472" y2="30.5" stroke="white" stroke-width="3" stroke-linecap="round"/>
<line x1="50.3472" y1="6.16667" x2="50.3472" y2="25.8333" stroke="white" stroke-width="3" stroke-linecap="round"/>
<line x1="58.3472" y1="2.83333" x2="58.3472" y2="29.1667" stroke="white" stroke-width="3" stroke-linecap="round"/>
<line x1="66.3472" y1="1.5" x2="66.3472" y2="30.5" stroke="#987BFC" stroke-width="3" stroke-linecap="round"/>
<line x1="74.3472" y1="4.16667" x2="74.3472" y2="27.8333" stroke="#987BFC" stroke-width="3" stroke-linecap="round"/>
<line x1="82.3472" y1="1.5" x2="82.3472" y2="30.5" stroke="#987BFC" stroke-width="3" stroke-linecap="round"/>
<line x1="90.3472" y1="1.5" x2="90.3472" y2="30.5" stroke="#987BFC" stroke-width="3" stroke-linecap="round"/>
<line x1="98.3472" y1="1.5" x2="98.3472" y2="30.5" stroke="#987BFC" stroke-width="3" stroke-linecap="round"/>
<line x1="106.347" y1="1.5" x2="106.347" y2="30.5" stroke="#987BFC" stroke-width="3" stroke-linecap="round"/>
<line x1="114.347" y1="1.5" x2="114.347" y2="30.5" stroke="#987BFC" stroke-width="3" stroke-linecap="round"/>
<line x1="122.347" y1="7.5" x2="122.347" y2="24.5" stroke="#987BFC" stroke-width="3" stroke-linecap="round"/>
<line x1="130.347" y1="7.5" x2="130.347" y2="24.5" stroke="#987BFC" stroke-width="3" stroke-linecap="round"/>
<line x1="138.347" y1="4.16667" x2="138.347" y2="27.8333" stroke="#987BFC" stroke-width="3" stroke-linecap="round"/>
<line x1="146.347" y1="1.5" x2="146.347" y2="30.5" stroke="#987BFC" stroke-width="3" stroke-linecap="round"/>
<line x1="154.347" y1="2.83333" x2="154.347" y2="29.1667" stroke="#987BFC" stroke-width="3" stroke-linecap="round"/>
<line x1="162.347" y1="1.5" x2="162.347" y2="30.5" stroke="#987BFC" stroke-width="3" stroke-linecap="round"/>
<line x1="170.347" y1="4.16667" x2="170.347" y2="27.8333" stroke="#987BFC" stroke-width="3" stroke-linecap="round"/>
<line x1="178.347" y1="7.5" x2="178.347" y2="24.5" stroke="#987BFC" stroke-width="3" stroke-linecap="round"/>
<line x1="186.347" y1="1.5" x2="186.347" y2="30.5" stroke="#987BFC" stroke-width="3" stroke-linecap="round"/>
<line x1="194.347" y1="1.5" x2="194.347" y2="30.5" stroke="#987BFC" stroke-width="3" stroke-linecap="round"/>
<line x1="202.347" y1="7.5" x2="202.347" y2="24.5" stroke="#987BFC" stroke-width="3" stroke-linecap="round"/>
<line x1="210.347" y1="12.1667" x2="210.347" y2="19.8333" stroke="#987BFC" stroke-width="3" stroke-linecap="round"/>
<line x1="218.347" y1="14.1667" x2="218.347" y2="17.8333" stroke="#987BFC" stroke-width="3" stroke-linecap="round"/>
<circle cx="66.8472" cy="16" r="4" fill="white"/>
</svg>
